HIERARCHY
ROOT SpineBase
{
  OFFSET 0.000000 0.000000 0.000000
  CHANNELS 6 Xposition Yposition Zposition Zrotation Xrotation Yrotation
  JOINT SpineMid
  {
    OFFSET 0.000000 26.806690 0.000000
    CHANNELS 3 Zrotation Xrotation Yrotation
    JOINT SpineShoulder
    {
      OFFSET -0.137200 20.094795 -0.709615
      CHANNELS 3 Zrotation Xrotation Yrotation
      JOINT Neck
      {
        OFFSET -0.092256 6.719433 -0.533233
        CHANNELS 3 Zrotation Xrotation Yrotation
        JOINT Head
        {
          OFFSET 2.533446 12.755461 -2.707115
          CHANNELS 3 Zrotation Xrotation Yrotation
          End Site
          {
            OFFSET 0 0 0
          }
        }
      }
      JOINT ShoulderLeft
      {
        OFFSET -14.497302 -0.983973 -3.743577
        CHANNELS 3 Zrotation Xrotation Yrotation
        JOINT ElbowLeft
        {
          OFFSET -6.909606 -20.250653 3.388877
          CHANNELS 3 Zrotation Xrotation Yrotation
          JOINT WristLeft
          {
            OFFSET -0.982300 -19.951310 -8.639292
            CHANNELS 3 Zrotation Xrotation Yrotation
            JOINT HandLeft
            {
              OFFSET 2.454405 -6.149853 -2.288717
              CHANNELS 3 Zrotation Xrotation Yrotation
              JOINT HandTipLeft
              {
                OFFSET 1.250597 -4.842511 -4.619803
                CHANNELS 3 Zrotation Xrotation Yrotation
                End Site
                {
                  OFFSET 0 0 0
                }
              }
              JOINT ThumbLeft
              {
                OFFSET 2.719967 0.679203 -0.073551
                CHANNELS 3 Zrotation Xrotation Yrotation
                End Site
                {
                  OFFSET 0 0 0
                }
              }
            }
          }
        }
      }
      JOINT ShoulderRight
      {
        OFFSET 16.241248 -3.850069 3.293669
        CHANNELS 3 Zrotation Xrotation Yrotation
        JOINT ElbowRight
        {
          OFFSET 4.752641 -22.320927 2.552842
          CHANNELS 3 Zrotation Xrotation Yrotation
          JOINT WristRight
          {
            OFFSET -8.502482 -15.430887 -13.684107
            CHANNELS 3 Zrotation Xrotation Yrotation
            JOINT HandRight
            {
              OFFSET -0.809620 -2.475017 2.077776
              CHANNELS 3 Zrotation Xrotation Yrotation
              JOINT HandTipRight
              {
                OFFSET -1.017203 -2.015719 -1.870787
                CHANNELS 3 Zrotation Xrotation Yrotation
                End Site
                {
                  OFFSET 0 0 0
                }
              }
              JOINT ThumbRight
              {
                OFFSET 2.445500 -1.480458 -1.673127
                CHANNELS 3 Zrotation Xrotation Yrotation
                End Site
                {
                  OFFSET 0 0 0
                }
              }
            }
          }
        }
      }
    }
  }
  JOINT HipLeft
  {
    OFFSET -6.812427 2.680815 -4.330832
    CHANNELS 3 Zrotation Xrotation Yrotation
    JOINT KneeLeft
    {
      OFFSET -7.166840 -29.835587 0.478071
      CHANNELS 3 Zrotation Xrotation Yrotation
      JOINT AnkleLeft
      {
        OFFSET -0.293826 -46.382972 12.191924
        CHANNELS 3 Zrotation Xrotation Yrotation
        JOINT FootLeft
        {
          OFFSET -1.982359 -5.714545 -3.755688
          CHANNELS 3 Zrotation Xrotation Yrotation
          End Site
          {
            OFFSET 0 0 0
          }
        }
      }
    }
  }
  JOINT HipRight
  {
    OFFSET 5.900576 -0.159504 -1.780195
    CHANNELS 3 Zrotation Xrotation Yrotation
    JOINT KneeRight
    {
      OFFSET 2.279837 -28.713122 1.759290
      CHANNELS 3 Zrotation Xrotation Yrotation
      JOINT AnkleRight
      {
        OFFSET -0.221282 -46.042261 10.845852
        CHANNELS 3 Zrotation Xrotation Yrotation
        JOINT FootRight
        {
          OFFSET 6.041526 -5.878820 -5.623797
          CHANNELS 3 Zrotation Xrotation Yrotation
          End Site
          {
            OFFSET 0 0 0
          }
        }
      }
    }
  }
}
MOTION
Frames: 16
Frame Time: 0.033333
53.622482 80.793706 362.197844 -0.000000 0.000000 -11.344753 -0.000000 0.000000 11.344753 -0.000000 0.000000 0.000000 -0.000000 0.000000 0.000000 0.000000 0.000000 0.000000 -0.000000 0.000000 0.000000 -0.000000 0.000000 0.000000 -0.000000 0.000000 0.000000 -0.000000 0.000000 0.000000 0.000000 0.000000 0.000000 0.000000 0.000000 0.000000 -0.000000 0.000000 0.000000 -0.000000 0.000000 0.000000 -0.000000 0.000000 0.000000 -0.000000 0.000000 0.000000 0.000000 0.000000 0.000000 0.000000 0.000000 0.000000 -0.000000 0.000000 11.344753 -0.000000 0.000000 0.000000 -0.000000 0.000000 0.000000 0.000000 0.000000 0.000000 -0.000000 0.000000 11.344753 -0.000000 0.000000 0.000000 -0.000000 0.000000 0.000000 0.000000 0.000000 0.000000
53.386502 80.754235 362.047291 -0.289084 0.076427 -11.406893 0.298489 -0.017743 11.407132 -0.000000 0.000000 0.000000 -0.000000 0.000000 0.000000 0.000000 0.000000 0.000000 -0.000000 0.000000 0.000000 1.195474 -1.178371 -0.449599 -3.051910 3.317728 2.089542 -0.117346 -7.923607 -1.514038 0.000000 0.000000 0.000000 0.000000 0.000000 0.000000 -0.721206 0.427395 0.011227 -3.739706 1.701772 2.725032 13.810751 3.909023 3.248042 -6.901251 -18.433569 -3.174474 0.000000 0.000000 0.000000 0.000000 0.000000 0.000000 0.298489 -0.017743 11.407132 -0.000000 0.000000 0.000000 -1.560915 12.482192 -2.925810 0.000000 0.000000 0.000000 0.298489 -0.017743 11.407132 -0.000000 0.000000 0.000000 -7.362556 0.529978 8.119803 0.000000 0.000000 0.000000
53.160083 80.706370 361.908000 -0.548516 0.139727 -11.419371 0.565322 -0.028356 11.420179 -0.000000 0.000000 0.000000 1.304189 0.229194 0.229288 0.000000 0.000000 0.000000 -0.000000 0.000000 0.000000 2.188289 -2.173970 -0.806484 -5.596708 5.880224 3.869076 -0.970622 -14.595640 -2.709083 0.000000 0.000000 0.000000 0.000000 0.000000 0.000000 -1.443405 0.747887 0.003587 -6.713590 2.941035 5.040278 25.438745 7.422257 6.322995 -16.440053 -29.391124 -7.960532 0.000000 0.000000 0.000000 0.000000 0.000000 0.000000 1.593302 -0.404056 11.576662 -0.931721 0.574284 -0.147934 -2.654059 20.810117 -4.487179 0.000000 0.000000 0.000000 0.565322 -0.028356 11.420179 0.263984 -1.183885 0.070432 -14.192090 1.136902 15.409731 0.000000 0.000000 0.000000
52.943222 80.650111 361.779969 -0.777879 0.189787 -11.384430 0.800035 -0.032494 11.385946 -0.000000 0.000000 0.000000 1.781787 0.332361 0.308142 0.000000 0.000000 0.000000 -0.000000 0.000000 0.000000 2.995373 -2.995972 -1.085112 -7.668121 7.814296 5.330236 -2.228438 -19.711649 -3.564755 0.000000 0.000000 0.000000 0.000000 0.000000 0.000000 -2.169962 0.966652 -0.024194 -8.887556 3.810518 6.907184 34.536927 10.325918 8.995615 -26.193693 -35.521898 -13.489254 0.000000 0.000000 0.000000 0.000000 0.000000 0.000000 2.258088 -0.538856 11.603488 -1.326532 0.789098 -0.201137 -3.724406 25.869626 -5.009140 0.000000 0.000000 0.000000 1.468738 0.428140 11.454724 -0.350182 -2.030057 0.036757 -19.362592 0.448175 20.872542 0.000000 0.000000 0.000000
52.735922 80.585458 361.663198 -0.976846 0.226538 -11.303690 1.002299 -0.030649 11.305889 -0.000000 0.000000 0.000000 2.143644 0.427220 0.363795 0.000000 0.000000 0.000000 -0.055154 0.793946 -0.280028 3.709699 -4.425926 -0.964887 -9.281140 9.200319 6.459373 -3.585393 -23.090402 -3.966908 0.000000 0.000000 0.000000 0.000000 0.000000 0.000000 -2.904263 1.087733 -0.073523 -10.271477 4.397658 8.322323 41.267195 12.581086 11.247738 -34.706963 -38.463619 -18.677507 0.000000 0.000000 0.000000 0.000000 0.000000 0.000000 2.828383 -0.628578 11.570952 -1.669269 0.951714 -0.240691 -4.982627 28.444134 -4.681130 0.000000 0.000000 0.000000 1.749234 0.556161 11.388424 -0.316277 -2.621310 0.060959 -22.786351 -0.399703 24.243817 0.000000 0.000000 0.000000
52.538181 80.512411 361.557689 -1.145180 0.249947 -11.178205 0.313161 0.002394 11.152514 0.837589 -0.191169 0.029667 2.390146 0.513444 0.396668 0.000000 0.000000 0.000000 0.008848 0.913610 -0.310746 4.122141 -5.035110 -1.071406 -10.429302 10.074129 7.229507 -4.797781 -24.670858 -3.771752 0.000000 0.000000 0.000000 0.000000 0.000000 0.000000 -3.649757 1.114139 -0.145984 -10.890545 4.771050 9.297086 45.961093 14.241792 13.144301 -41.300184 -39.288531 -22.870988 0.000000 0.000000 0.000000 0.000000 0.000000 0.000000 3.300344 -0.672862 11.478749 -1.956903 1.059766 -0.266779 -6.512908 28.949049 -3.608631 0.000000 0.000000 0.000000 1.925285 0.676256 11.273093 -0.207392 -3.168012 0.091111 -24.522980 -1.065296 25.520020 0.000000 0.000000 0.000000
52.413937 80.414257 361.516306 -1.238516 0.255684 -11.018078 0.321083 0.007295 10.989756 0.922065 -0.200974 0.032803 2.285038 0.638272 0.347305 0.000000 0.000000 0.000000 -0.169880 1.298059 -0.470077 5.187749 -6.279478 -1.129855 -12.191828 10.959930 8.207384 -5.235508 -22.826964 -2.267506 0.000000 0.000000 0.000000 0.000000 0.000000 0.000000 -4.872835 1.223224 -0.247676 -7.974053 3.961998 8.364208 43.665125 11.899075 14.921312 -38.241885 -34.247838 -22.446719 0.000000 0.000000 0.000000 0.000000 0.000000 0.000000 3.412433 -0.526453 11.283843 -2.006388 0.922173 -0.236560 -0.016382 36.497881 -10.727584 0.000000 0.000000 0.000000 1.850825 0.889420 11.123884 -0.063402 -3.988649 0.093266 -25.114369 -4.563233 21.226492 0.000000 0.000000 0.000000
52.234419 80.319667 361.446694 -1.410925 0.259587 -10.829282 0.321377 0.022380 10.795642 0.210137 -0.110193 -0.031823 3.225064 0.594026 0.419702 0.000000 0.000000 0.000000 0.619089 1.406525 -0.489649 5.317769 -7.121739 -0.968713 -12.481837 10.164360 7.817903 -5.244395 -17.334324 1.016980 0.000000 0.000000 0.000000 0.000000 0.000000 0.000000 -4.906572 0.960644 -0.325351 -7.129663 4.103209 8.576529 45.645957 12.113366 17.021222 -40.475290 -33.209964 -25.250088 0.000000 0.000000 0.000000 0.000000 0.000000 0.000000 3.771626 -0.379041 11.073935 -2.218999 0.830455 -0.217976 7.953225 35.119138 -17.050166 0.000000 0.000000 0.000000 1.899807 1.061039 10.943119 0.136602 -4.171586 0.117100 -23.384157 -3.975788 19.105900 0.000000 0.000000 0.000000
52.080489 80.231843 361.409622 -1.541104 0.242464 -10.899692 0.289774 0.048385 10.860902 0.197489 -0.084063 -0.039185 3.270620 0.772620 0.361193 0.000000 0.000000 0.000000 0.943611 1.303136 -0.430417 4.901624 -6.540951 -0.979455 -10.628021 7.602197 5.926387 -6.263533 -13.837693 3.566490 0.000000 0.000000 0.000000 0.000000 0.000000 0.000000 -5.382753 0.345905 -0.543090 -6.255915 4.493524 8.745639 51.168713 12.797107 23.745158 -47.598686 -28.615210 -32.011105 0.000000 0.000000 0.000000 0.000000 0.000000 0.000000 4.005746 -0.360046 11.155915 -2.320626 0.878536 -0.229346 4.244701 27.451788 -11.754328 0.000000 0.000000 0.000000 1.876456 0.943833 10.993548 0.490131 -3.514906 0.180474 -19.478025 1.781560 20.842329 0.000000 0.000000 0.000000
51.812323 80.131578 361.240413 -1.647895 0.261227 -10.550944 0.223535 0.067743 10.507422 0.169725 -0.054319 -0.047846 3.545715 0.650343 0.405762 0.000000 0.000000 0.000000 1.336370 0.824862 -0.247512 4.103691 -5.378720 -1.032897 -7.384331 2.576813 2.518441 -8.227074 -7.204347 8.238925 0.000000 0.000000 0.000000 0.000000 0.000000 0.000000 -5.693334 -0.090483 -0.693881 -5.774262 4.917167 8.907008 51.783333 15.844723 22.400533 -50.188661 -30.511884 -32.960530 0.000000 0.000000 0.000000 0.000000 0.000000 0.000000 4.535758 -0.551808 10.879107 -1.956635 0.470343 -0.095002 -8.890135 11.840848 1.995309 0.000000 0.000000 0.000000 1.667859 0.045001 10.554046 1.336114 -2.604893 0.355767 -16.138217 7.439564 21.960770 0.000000 0.000000 0.000000
51.498618 80.055635 360.993072 -1.562294 0.206574 -9.860238 0.156606 0.087874 9.816673 0.132118 -0.014900 -0.049117 3.455770 0.650704 0.381394 0.000000 0.000000 0.000000 2.007817 0.453690 -0.016575 2.165665 -5.086956 -0.799641 1.560006 2.334490 -1.578236 -15.263222 -8.236307 11.011551 0.000000 0.000000 0.000000 0.000000 0.000000 0.000000 -5.699135 -0.487511 -0.802112 -6.248270 5.536995 9.320354 49.380766 22.120880 13.298603 -51.238886 -39.296043 -29.554164 0.000000 0.000000 0.000000 0.000000 0.000000 0.000000 4.796773 -0.713786 10.248280 -1.866781 0.052049 -0.030780 -20.022556 -16.437221 16.523684 0.000000 0.000000 0.000000 1.574587 0.064056 9.862174 2.024006 -2.398341 0.528168 -12.784358 10.546336 19.825109 0.000000 0.000000 0.000000
51.207739 80.005476 360.642526 -1.388818 0.290040 -8.822978 0.051309 0.139336 8.784544 0.080800 0.048380 -0.047235 3.510166 0.167101 0.462310 0.000000 0.000000 0.000000 3.242807 -0.602693 0.501202 -1.199356 -4.763821 -0.473433 12.202615 10.116843 -4.073408 -23.661133 -18.408025 7.856726 0.000000 0.000000 0.000000 0.000000 0.000000 0.000000 -5.105221 -1.274968 -0.906824 -7.665000 6.409209 9.953378 48.640502 38.207774 -9.085985 -52.518225 -62.847382 -26.701056 0.000000 0.000000 0.000000 0.000000 0.000000 0.000000 4.805333 -1.063873 9.275205 -1.910062 -0.149006 -0.039678 -20.202149 -30.947886 21.564688 0.000000 0.000000 0.000000 1.416869 -0.073523 8.827402 2.568782 -2.461021 0.668907 -7.876560 14.881626 17.065414 0.000000 0.000000 0.000000
50.736610 79.918381 360.133679 -1.021073 0.251419 -7.867451 -0.029751 0.138830 7.837216 0.035380 0.073591 -0.038164 3.254425 0.141586 0.444406 0.000000 0.000000 0.000000 4.080660 -0.507001 0.639840 -2.890062 -4.859322 -0.384614 24.680024 16.218605 -8.498172 -35.982451 -30.002019 3.847981 0.000000 0.000000 0.000000 0.000000 0.000000 0.000000 -4.332971 -1.753606 -0.918030 -9.489151 6.912435 10.667289 43.583618 50.043670 -40.357882 47.405208 -76.912692 72.243799 0.000000 0.000000 0.000000 0.000000 0.000000 0.000000 4.578894 -1.544267 8.436120 -1.698552 0.017627 -0.054292 -19.212454 -37.293607 23.768060 0.000000 0.000000 0.000000 1.045877 -0.109254 7.870689 3.141092 -3.550437 0.848458 -8.755672 16.025434 17.482824 0.000000 0.000000 0.000000
50.109012 79.787850 359.574290 -0.729265 0.224225 -7.085011 0.751355 -0.132548 7.087307 -0.000000 0.000000 0.000000 2.697767 0.627329 0.435830 0.000000 0.000000 0.000000 2.704396 -0.186283 0.524693 -2.202704 -5.876626 -0.429038 19.593764 19.489254 -5.946513 -32.031913 -33.691433 -0.269324 0.000000 0.000000 0.000000 0.000000 0.000000 0.000000 -5.278176 -1.039181 -0.880979 -10.331415 6.664501 11.219729 32.907291 51.325336 -51.361990 60.723763 -64.096107 87.718869 0.000000 0.000000 0.000000 0.000000 0.000000 0.000000 4.412059 -2.070326 7.787335 -1.355311 0.384975 -0.063304 -18.533986 -37.927197 23.652257 0.000000 0.000000 0.000000 0.831252 1.920783 7.267621 3.482529 -7.307227 1.038654 -9.437917 14.938246 15.046109 0.000000 0.000000 0.000000
49.262145 79.616790 358.814839 -0.502089 0.165683 -5.981523 0.516622 -0.112454 5.982756 -0.000000 0.000000 0.000000 3.656909 -0.544764 0.906783 0.000000 0.000000 0.000000 2.852677 -0.059206 0.503390 -1.419464 -6.653132 -0.738225 6.680467 20.345522 0.849429 -23.618918 -37.024629 -4.715995 0.000000 0.000000 0.000000 0.000000 0.000000 0.000000 -4.691770 -1.169286 -0.840109 -11.612264 6.723616 11.802165 23.221289 51.139420 -56.343247 58.231637 -55.951158 88.579290 0.000000 0.000000 0.000000 0.000000 0.000000 0.000000 4.414991 -2.672177 6.850871 -1.318882 0.277491 -0.130236 -17.800091 -31.762965 21.112875 0.000000 0.000000 0.000000 0.439212 5.952938 6.502296 3.946526 -13.150069 1.298434 -8.106978 14.224400 10.347154 0.000000 0.000000 0.000000
48.289403 79.425832 357.929123 -0.327857 -0.227891 -5.208885 0.305817 0.256711 5.207548 -0.000000 0.000000 0.000000 4.733002 -0.914983 1.232595 0.000000 0.000000 0.000000 2.892047 -0.035812 0.501490 -0.151985 -7.140546 -1.209598 -3.738536 17.867669 5.617543 -16.954730 -37.180589 -6.028721 0.000000 0.000000 0.000000 0.000000 0.000000 0.000000 -4.240886 -1.133770 -0.773858 -12.541635 6.588519 12.175312 15.588181 48.535932 -55.640543 48.432433 -53.236440 84.027146 0.000000 0.000000 0.000000 0.000000 0.000000 0.000000 4.592916 -2.974096 6.247764 -0.790111 0.081180 -0.063167 -19.010166 -30.850781 21.304347 0.000000 0.000000 0.000000 -0.398701 12.269585 6.273940 4.651922 -20.361925 1.645615 -8.043142 10.080688 4.304758 0.000000 0.000000 0.000000
